# xmcd CD database file
#
# Track frame offsets:
#	150
#	15286
#	45401
#	75396
#	86385
#	116325
#	132639
#	151488
#	174987
#
# Disc length: 2640 seconds
#
# Revision: 0
# Processed by: cddbd v1.5.1PL0 Copyright (c) Steve Scherf et al.
# Submitted via: CDex 1.40Release
#
DISCID=590a4e09
DTITLE=Bonzo and The Resonators - Live 2004
DYEAR=2005
DGENRE=Blues
TTITLE0=Baby What You Want Me To Do (J.Reed)
TTITLE1=Hey Little Baby (P.B.Radvanyi)
TTITLE2=In My Own Time Of Dying (trad.)
TTITLE3=Memám hlad (P.B.Radványi)
TTITLE4=Average Man Blues ( P.B.Radványi)
TTITLE5=Diving Duck (trad.)
TTITLE6=Travelling Blues (trad./text P.B.Radványi)
TTITLE7=Blow Wind Blow (Morganfield)
TTITLE8=Shake Your Money Maker (E.James)
EXTD=YEAR: 2005 ID3G: 0
EXTT0=
EXTT1=
EXTT2=
EXTT3=
EXTT4=
EXTT5=
EXTT6=
EXTT7=
EXTT8=
PLAYORDER=
